
<svg width="115px" height="18px" viewBox="0 0 115 18" version="1.1" xmlns="http://www.w3.org/2000/svg" xmlns:xlink="http://www.w3.org/1999/xlink">
    <!-- Generator: Sketch 43.1 (39012) - http://www.bohemiancoding.com/sketch -->
    <desc>Created with Sketch.</desc>
    <defs>
        <polygon id="path-1" points="0 0.0790073725 0 15.3608019 12.9343753 15.3608019 12.9343753 0.0790073725 1.48580232e-20 0.0790073725"></polygon>
        <polygon id="path-3" points="11.9390185 0.16198149 11.9390185 15.8546435 0.057447619 15.8546435 0.057447619 0.16198149"></polygon>
    </defs>
    <g id="Page-1" stroke="none" stroke-width="1" fill="none" fill-rule="evenodd">
        <g id="Forbes-At-100-Desktop" transform="translate(-635.000000, -188.000000)">
            <g id="forbes-at-100" transform="translate(635.000000, 188.000000)">
                <path d="M37.0513755,16.0635507 C36.7579248,16.0635507 36.392482,16.0635507 36.1728508,15.9918582 C36.1004931,14.9728778 36.0274045,10.6793311 36.1004931,6.89527467 C36.5382937,6.74934212 36.8310134,6.6765578 37.1964563,6.6765578 C38.803674,6.6765578 39.6814678,8.56858604 39.6814678,10.8973202 C39.6814678,13.8076009 38.5847737,16.0635507 37.0513755,16.0635507 M38.7309509,5.51237271 C37.7077108,5.51237271 36.9044674,5.73036173 36.1004931,6.16706761 C36.1004931,3.83833349 36.1004931,1.72831624 36.1728508,1.00010918 L31.2773781,1.87352094 L31.2773781,2.31022682 L31.7889981,2.38301114 C32.4471607,2.52821584 32.666061,2.89177349 32.8118727,3.76554918 C32.9576844,5.51237271 32.8849613,14.8262174 32.8118727,16.3557798 C34.1267362,16.6465531 35.5154191,16.864906 36.9044674,16.864906 C40.7781618,16.864906 43.1158999,14.4630237 43.1158999,10.6793311 C43.1158999,7.69517427 41.2152315,5.51237271 38.7309509,5.51237271" id="Fill-1" fill="#FEFEFE"></path>
                <g id="Group-5" transform="translate(0.000000, 1.212530)">
                    <mask id="mask-2" fill="white">
                        <use xlink:href="#path-1"></use>
                    </mask>
                    <g id="Clip-4"></g>
                    <path d="M12.8612867,0.0790073725 L-0.000109632861,0.0790073725 L-0.000109632861,0.733702275 L0.730776106,0.806122667 C1.68092757,0.951691294 2.04637043,1.53360188 2.19218214,2.91650384 C2.41144786,5.53673914 2.33835929,10.2666278 2.19218214,12.5229415 C2.04637043,13.9058435 1.68092757,14.5601744 0.730776106,14.6322309 L-0.000109632861,14.7792552 L-0.000109632861,15.3608019 L8.25780288,15.3608019 L8.25780288,14.7792552 L7.38074,14.6322309 C6.43095398,14.5601744 6.06514567,13.9058435 5.91933396,12.5229415 C5.84624539,11.5760176 5.77279137,10.0479109 5.77279137,8.15588267 L7.52691715,8.22866698 C8.6236112,8.22866698 9.13413488,9.10207875 9.35376605,10.3394121 L10.0119287,10.3394121 L10.0119287,5.17318149 L9.35376605,5.17318149 C9.13413488,6.41051482 8.6236112,7.28319875 7.52691715,7.28319875 L5.77279137,7.35598306 C5.77279137,4.88131639 5.84624539,2.5529462 5.91933396,1.17040816 L8.47670316,1.17040816 C10.4504601,1.17040816 11.4729692,2.40701365 12.203855,4.59054306 L12.9343753,4.3718262 L12.8612867,0.0790073725 Z" id="Fill-3" fill="#FEFEFE" mask="url(#mask-2)"></path>
                </g>
                <path d="M16.8081428,6.09402855 C15.2005596,6.09402855 14.7620282,8.27683012 14.7620282,11.1154184 C14.7620282,13.8801305 15.4925485,16.1364442 16.9546854,16.1364442 C18.6349917,16.1364442 19.0735231,13.9536427 19.0735231,11.1154184 C19.0735231,8.34997835 18.3426374,6.09402855 16.8081428,6.09402855 M17.0270431,5.36654933 C20.6811063,5.36654933 22.5079552,7.84085208 22.5079552,11.1154184 C22.5079552,14.2451438 20.4614751,16.8646513 16.8081428,16.8646513 C13.1533486,16.8646513 11.3272306,14.3903485 11.3272306,11.1154184 C11.3272306,7.98605678 13.3729798,5.36654933 17.0270431,5.36654933" id="Fill-6" fill="#FEFEFE"></path>
                <path d="M47.4273217,9.8058102 L50.8617538,9.73302588 C50.8617538,8.27697569 50.6428536,6.09417412 49.4010787,6.09417412 C48.157842,6.09417412 47.5004103,8.13104314 47.4273217,9.8058102 M44.0659782,11.1883482 C44.0659782,8.20455529 45.9659157,5.36633098 49.6923367,5.36633098 C52.7616913,5.36633098 54.2241937,7.62300863 54.2241937,10.6064376 L47.4273217,10.6064376 C47.3542332,13.2980016 48.6698275,15.263542 51.3010162,15.263542 C52.4700679,15.263542 53.0551419,14.9727686 53.7852968,14.4632784 L54.0765548,14.8264722 C53.3463999,15.8447247 51.7388167,16.8647969 49.6923367,16.8647969 C46.4037163,16.8647969 44.0659782,14.5360627 44.0659782,11.1883482" id="Fill-8" fill="#FEFEFE"></path>
                <path d="M62.9198702,5.94893302 C62.0428073,5.58428361 60.8733901,5.36629459 59.5585267,5.36629459 C56.8549803,5.36629459 55.1732123,6.96682165 55.1732123,8.85957773 C55.1732123,10.751242 56.415718,11.5518695 58.1698438,12.1345079 C59.9963273,12.788475 60.5083127,13.2983291 60.5083127,14.1713769 C60.5083127,15.0451526 59.850881,15.8450522 58.6814638,15.8450522 C57.2935118,15.8450522 56.2699063,15.0451526 55.465932,12.8612593 L54.9550429,13.0079197 L55.0274006,16.2100656 C55.9044634,16.5732593 57.5116812,16.8647605 58.901095,16.8647605 C61.7508185,16.8647605 63.5780328,15.4087103 63.5780328,13.1531244 C63.5780328,11.6250177 62.7740585,10.751242 60.8733901,10.023035 C58.8272755,9.22313537 58.0971207,8.71437302 58.0971207,7.76781302 C58.0971207,6.82161694 58.7545524,6.16692204 59.6312498,6.16692204 C60.9468442,6.16692204 61.823907,6.96682165 62.4820696,8.9316342 L62.9929588,8.78715733 L62.9198702,5.94893302 Z" id="Fill-10" fill="#FEFEFE"></path>
                <path d="M32.0078984,5.65735906 C30.7653927,4.92987984 28.5734663,5.29270965 27.4044146,7.91294494 L27.4767723,5.3662218 L22.5802033,6.31205396 L22.5802033,6.74948769 L23.0925542,6.82154416 C23.7503513,6.89505631 24.0423402,7.25825004 24.1154288,8.20481004 C24.2619714,9.95163357 24.1888828,13.0078469 24.1154288,14.5359536 C24.0423402,15.4086375 23.7503513,15.8449795 23.0925542,15.9184916 L22.5802033,15.9920038 L22.5802033,16.5731865 L29.3767098,16.5731865 L29.3767098,15.9920038 L28.5003778,15.9184916 C27.769492,15.8449795 27.5498609,15.4086375 27.4767723,14.5359536 C27.3309606,13.1530516 27.3309606,10.3883395 27.4044146,8.64151592 C27.769492,8.13129788 29.3767098,7.69495592 30.8381158,8.64151592 L32.0078984,5.65735906 Z" id="Fill-12" fill="#FEFEFE"></path>
                <path d="M75.3176139,9.80928361 L75.9761799,6.64554838 C75.9761799,6.00481847 75.6774861,5.35393492 75.0293563,5.35393492 C73.6607626,5.35393492 72.1687327,8.36746625 72.1687327,11.2108365 C72.1687327,12.4824928 72.4875794,12.9127972 73.043222,12.9127972 C73.9076349,12.9127972 74.689637,11.7916949 75.3176139,9.80928361 M74.782484,12.4922963 C74.782484,12.1922387 74.8335859,11.8816772 74.9055603,11.5914231 C74.1339944,13.263273 73.1256327,13.9040029 71.9114241,13.9040029 C70.4294706,13.9040029 69.4725706,13.0129332 69.4725706,11.2409473 C69.4725706,8.32755193 71.8700388,4.63302624 74.515099,4.63302624 C75.4306138,4.63302624 75.9657436,5.15366306 76.1406415,5.85461458 L76.3360521,4.92328039 C77.2213375,4.92328039 78.219263,4.86340891 79.0012651,4.63302624 L77.3343374,12.0318811 C77.2727992,12.2818708 77.231414,12.50245 77.2213375,12.6827647 L77.2213375,12.7825505 C77.2213375,13.0833084 77.3138247,13.2534695 77.560697,13.2534695 C77.6330313,13.2534695 77.7251585,13.2331622 77.8284418,13.2030514 C79.5468313,12.7125254 82.2635061,10.3299204 82.2635061,6.35529423 C82.2635061,2.56063262 79.3719334,1.10901174 75.9966926,1.10901174 C70.7688301,1.10901174 66.0973298,5.90468254 66.0973298,11.4611763 C66.0973298,15.6861424 68.8449536,17.3681459 72.5390411,17.3681459 C74.06202,17.3681459 75.5130245,17.0575845 76.8816182,16.2568471 L77.0360034,16.5271441 C75.9761799,17.2480528 74.4017393,17.7385788 72.5185284,17.7385788 C68.525747,17.7385788 65.6751998,15.8461498 65.6751998,11.5014408 C65.6751998,5.98486131 70.2340601,0.738578824 75.9761799,0.738578824 C79.7217292,0.738578824 82.6751998,2.38031792 82.6751998,6.37525139 C82.6751998,10.9906075 79.1660866,13.9040029 76.4389755,13.9040029 C75.1218435,13.9040029 74.782484,13.2433158 74.782484,12.4922963" id="Fill-14" fill="#FEFEFE"></path>
                <path d="M88.513625,15.0376558 C88.513625,16.3801625 88.8582376,16.66111 90.0598138,16.6924072 L90.0598138,17.129477 C89.4436771,17.0981798 88.2106729,17.0566927 87.0189637,17.0566927 C85.6087196,17.0566927 84.1140583,17.0981798 83.3407812,17.129477 L83.3407812,16.6924072 C84.9399592,16.66111 85.430749,16.2968245 85.430749,14.6526268 L85.430749,5.23506447 C85.430749,3.76773271 84.9085311,3.57012329 83.0794895,3.57012329 L83.0794895,3.12249976 C85.8802437,2.78951153 87.4373958,2.27965741 88.513625,1.83203388 L88.513625,15.0376558 Z" id="Fill-16" fill="#FEFEFE"></path>
                <path d="M93.4995448,9.62643325 C93.4995448,14.5903235 94.5341136,17.0464301 96.2166125,17.0464301 C97.9616022,17.0464301 98.7871377,14.3821603 98.7871377,9.54309522 C98.7871377,4.57956894 97.7525689,2.12346227 96.0700699,2.12346227 C94.3353126,2.12346227 93.4995448,4.78773208 93.4995448,9.62643325 M102.089279,9.45975718 C102.089279,14.2264019 99.6020753,17.4310952 96.1329261,17.4310952 C92.5797251,17.4310952 90.2076354,14.5903235 90.2076354,9.70977129 C90.2076354,4.94349051 92.6948396,1.73843325 96.1537564,1.73843325 C99.7065919,1.73843325 102.089279,4.57956894 102.089279,9.45975718" id="Fill-18" fill="#FEFEFE"></path>
                <g id="Group-22" transform="translate(103.054889, 1.576452)">
                    <mask id="mask-4" fill="white">
                        <use xlink:href="#path-3"></use>
                    </mask>
                    <g id="Clip-21"></g>
                    <path d="M3.34935699,8.04998149 C3.34935699,13.0138717 4.38392575,15.4699784 6.06642472,15.4699784 C7.81141442,15.4699784 8.63694986,12.8057085 8.63694986,7.96664345 C8.63694986,3.00311718 7.6023811,0.54701051 5.91988213,0.54701051 C4.18512483,0.54701051 3.34935699,3.21128031 3.34935699,8.04998149 M11.9390916,7.88330541 C11.9390916,12.6499501 9.45188746,15.8546435 5.9827383,15.8546435 C2.42953728,15.8546435 0.057447619,13.0138717 0.057447619,8.13331953 C0.057447619,3.36703875 2.54465179,0.16198149 6.00356854,0.16198149 C9.55640412,0.16198149 11.9390916,3.00311718 11.9390916,7.88330541" id="Fill-20" fill="#FEFEFE" mask="url(#mask-4)"></path>
                </g>
            </g>
        </g>
    </g>
</svg>